# Wavefront Obj file
# 
# verts: 14 uv-s: 36
mtllib wood.mtl

g wood

v 15.837605 0.000000 0.148198
v -16.000813 0.000000 0.148195
v -13.868044 0.000000 8.107799
v -8.041212 0.000000 13.934633
v -0.081611 0.000000 16.067406
v 7.877993 0.000000 13.934641
v 13.704830 0.000000 8.107811
v 15.837605 47.995003 0.148198
v -16.000813 47.995003 0.148195
v -13.868044 47.995003 8.107799
v -8.041212 47.995003 13.934633
v -0.081611 47.995003 16.067406
v 7.877993 47.995003 13.934641
v 13.704830 47.995003 8.107811
# 14 positions

vt 0.010000 0.864633
vt 0.010000 0.771210
vt 0.573328 0.771210
vt 0.573328 0.864633
vt 0.010000 0.702819
vt 0.573328 0.702819
vt 0.010000 0.670876
vt 0.010000 0.577452
vt 0.573328 0.577452
vt 0.573328 0.670876
vt 0.010000 0.484028
vt 0.573328 0.484028
vt 0.010000 0.415638
vt 0.573328 0.415638
vt 0.010000 0.990000
vt 0.010000 0.896576
vt 0.573328 0.896576
vt 0.573328 0.990000
vt 0.573328 0.010000
vt 0.573328 0.383694
vt 0.010000 0.383694
vt 0.010000 0.010000
vt 0.605271 0.602485
vt 0.630304 0.509061
vt 0.698695 0.440670
vt 0.792118 0.415638
vt 0.885542 0.440670
vt 0.953933 0.509061
vt 0.978965 0.602485
vt 0.885542 0.171814
vt 0.792118 0.196847
vt 0.698695 0.171815
vt 0.630304 0.103424
vt 0.605271 0.010000
vt 0.978965 0.010000
vt 0.953933 0.103424
# 36 texture coordinates

vn -0.965926 0.000000 0.258819
vn -0.965926 0.000000 0.258819
vn -0.965926 0.000000 0.258819
vn -0.965926 0.000000 0.258819
vn -0.707107 0.000000 0.707107
vn -0.707107 0.000000 0.707107
vn -0.707107 0.000000 0.707107
vn -0.707107 0.000000 0.707107
vn -0.258819 0.000000 0.965926
vn -0.258819 0.000000 0.965926
vn -0.258819 0.000000 0.965926
vn -0.258819 0.000000 0.965926
vn 0.258819 0.000000 0.965926
vn 0.258819 0.000000 0.965926
vn 0.258819 0.000000 0.965926
vn 0.258819 0.000000 0.965926
vn 0.707106 0.000000 0.707107
vn 0.707106 0.000000 0.707107
vn 0.707106 0.000000 0.707107
vn 0.707106 0.000000 0.707107
vn 0.965926 0.000000 0.258819
vn 0.965926 0.000000 0.258819
vn 0.965926 0.000000 0.258819
vn 0.965926 0.000000 0.258819
vn 0.000000 -0.000000 -1.000000
vn 0.000000 0.000000 -1.000000
vn 0.000000 -0.000000 -1.000000
vn 0.000000 -0.000000 -1.000000
vn 0.000000 -1.000000 0.000000
vn 0.000000 -1.000000 0.000000
vn 0.000000 -1.000000 0.000000
vn 0.000000 -1.000000 0.000000
vn 0.000000 -1.000000 0.000000
vn 0.000000 -1.000000 0.000000
vn 0.000000 -1.000000 0.000000
vn 0.000000 1.000000 0.000000
vn 0.000000 1.000000 0.000000
vn 0.000000 1.000000 0.000000
vn 0.000000 1.000000 0.000000
vn 0.000000 1.000000 0.000000
vn 0.000000 1.000000 0.000000
vn 0.000000 1.000000 0.000000
# 42 normals

usemtl 
s 1
f 2/1/1 3/2/2 10/3/3
f 10/3/3 9/4/4 2/1/1
s 2
f 3/2/5 4/5/6 11/6/7
f 11/6/7 10/3/8 3/2/5
s 3
f 4/7/9 5/8/10 12/9/11
f 12/9/11 11/10/12 4/7/9
s 4
f 5/8/13 6/11/14 13/12/15
f 13/12/15 12/9/16 5/8/13
s 5
f 6/11/17 7/13/18 14/14/19
f 14/14/19 13/12/20 6/11/17
s 6
f 7/15/21 1/16/22 8/17/23
f 8/17/23 14/18/24 7/15/21
s 7
f 9/19/25 8/20/26 1/21/27
f 1/21/27 2/22/28 9/19/25
s 8
f 1/23/29 7/24/30 6/25/31
f 6/25/31 5/26/32 4/27/33
f 6/25/31 4/27/33 3/28/34
f 1/23/29 6/25/31 3/28/34
f 2/29/35 1/23/29 3/28/34
s 9
f 11/30/36 12/31/37 13/32/38
f 13/32/38 14/33/39 8/34/40
f 13/32/38 8/34/40 9/35/41
f 11/30/36 13/32/38 9/35/41
f 10/36/42 11/30/36 9/35/41

# 24 faces
